<svg width="64" height="51" viewBox="0 0 64 51" fill="none" xmlns="http://www.w3.org/2000/svg">
<path d="M0 49.6605H10.8258V46.9133H4.91233L11.0586 37.4844V37.0887H0.698436V39.8358H6.16952L0 49.2647V49.6605Z" fill="#25083B"/>
<path d="M13.8559 35.3426H17.0222V32.5488H13.8559V35.3426ZM13.8559 49.6605H17.0222V37.0887H13.8559V49.6605Z" fill="#25083B"/>
<path d="M20.4887 49.6605H23.2825V48.9388C23.7248 49.2802 24.2292 49.5441 24.7957 49.7303C25.3623 49.9166 25.9908 50.0097 26.6815 50.0097C27.8378 50.0097 28.8505 49.7187 29.7197 49.1367C30.5889 48.5546 31.264 47.7631 31.7452 46.762C32.2341 45.7609 32.4785 44.6318 32.4785 43.3746C32.4785 42.0941 32.2302 40.9572 31.7335 39.9639C31.2446 38.9628 30.554 38.1751 29.6615 37.6008C28.7691 37.0266 27.7214 36.7394 26.5186 36.7394C25.9676 36.7394 25.4515 36.8054 24.9704 36.9373C24.497 37.0693 24.0663 37.2594 23.6782 37.5077V32.898H20.4887V49.6605ZM26.1693 47.1927C25.1139 47.1927 24.3689 46.8435 23.9343 46.145C23.4998 45.4388 23.2825 44.5154 23.2825 43.3746C23.2825 42.2338 23.4959 41.3142 23.9227 40.6158C24.3573 39.9096 25.0674 39.5565 26.0529 39.5565C26.7591 39.5565 27.3373 39.7311 27.7874 40.0803C28.2452 40.4218 28.5828 40.8835 28.8001 41.4655C29.0174 42.0398 29.126 42.6761 29.126 43.3746C29.126 44.0808 29.0213 44.7249 28.8117 45.3069C28.6022 45.8812 28.2802 46.3391 27.8456 46.6805C27.411 47.022 26.8522 47.1927 26.1693 47.1927Z" fill="#25083B"/>
<path d="M35.0167 49.6605H37.8105V48.9388C38.2528 49.2802 38.7572 49.5441 39.3237 49.7303C39.8903 49.9166 40.5189 50.0097 41.2095 50.0097C42.3658 50.0097 43.3786 49.7187 44.2477 49.1367C45.1169 48.5546 45.792 47.7631 46.2732 46.762C46.7621 45.7609 47.0065 44.6318 47.0065 43.3746C47.0065 42.0941 46.7582 40.9572 46.2615 39.9639C45.7726 38.9628 45.082 38.1751 44.1895 37.6008C43.2971 37.0266 42.2494 36.7394 41.0466 36.7394C40.4956 36.7394 39.9795 36.8054 39.4984 36.9373C39.025 37.0693 38.5943 37.2594 38.2063 37.5077V32.898H35.0167V49.6605ZM40.6973 47.1927C39.6419 47.1927 38.8969 46.8435 38.4623 46.145C38.0278 45.4388 37.8105 44.5154 37.8105 43.3746C37.8105 42.2338 38.0239 41.3142 38.4507 40.6158C38.8853 39.9096 39.5954 39.5565 40.5809 39.5565C41.2871 39.5565 41.8653 39.7311 42.3154 40.0803C42.7732 40.4218 43.1108 40.8835 43.3281 41.4655C43.5454 42.0398 43.6541 42.6761 43.6541 43.3746C43.6541 44.0808 43.5493 44.7249 43.3398 45.3069C43.1302 45.8812 42.8082 46.3391 42.3736 46.6805C41.939 47.022 41.3803 47.1927 40.6973 47.1927Z" fill="#25083B"/>
<path d="M49.8008 35.3426H52.9671V32.5488H49.8008V35.3426ZM49.8008 49.6605H52.9671V37.0887H49.8008V49.6605Z" fill="#25083B"/>
<path d="M64 49.6605V47.0297C63.255 47.1306 62.576 47.1617 61.9629 47.1229C61.3498 47.0841 60.9036 46.8435 60.6242 46.4011C60.4768 46.1683 60.3953 45.8579 60.3798 45.4699C60.372 45.0741 60.3681 44.6318 60.3681 44.1429V39.5332H64V37.0887H60.3681V33.5965H57.2019V37.0887H55.06V39.5332H57.2019V44.3291C57.2019 45.0819 57.2096 45.757 57.2252 46.3546C57.2407 46.9444 57.4037 47.5264 57.7141 48.1007C58.0555 48.7137 58.5522 49.16 59.2041 49.4393C59.8637 49.7109 60.6087 49.8545 61.4391 49.87C62.2772 49.8933 63.1308 49.8235 64 49.6605Z" fill="#25083B"/>
<path d="M26.3117 22.9905C25.0545 23.5676 19.2251 23.4679 17.5537 22.9723C17.5304 22.965 17.5104 22.9498 17.4971 22.9294C17.4838 22.9089 17.4779 22.8845 17.4806 22.8602C18.1379 17.3251 22.1644 16.4124 26.398 14.8029C26.4092 14.7923 26.4182 14.7795 26.4243 14.7654C26.4305 14.7512 26.4336 14.7359 26.4336 14.7204C26.4336 14.705 26.4305 14.6897 26.4243 14.6755C26.4182 14.6613 26.4092 14.6485 26.398 14.638C25.794 14.0253 22.3953 11.5196 17.6917 14.0773C17.5189 14.1801 17.3695 14.318 17.2529 14.4821C14.934 18.0655 13.6521 21.5714 14.3218 26.1393C14.3551 26.3761 14.4705 26.5934 14.6477 26.7533C14.8249 26.9131 15.0525 27.0052 15.2906 27.0133C17.6416 27.0884 24.1259 27.0455 27.5977 27.1601C27.6665 27.1633 27.7349 27.1491 27.7967 27.1188C27.8586 27.0886 27.9119 27.0432 27.9517 26.9869C27.9916 26.9306 28.0167 26.8652 28.0247 26.7966C28.0328 26.728 28.0236 26.6585 27.9979 26.5945C27.6224 25.6133 26.79 23.6855 26.4473 23.0383C26.4353 23.0142 26.4144 22.9958 26.3891 22.9869C26.3638 22.978 26.3361 22.9793 26.3117 22.9905V22.9905Z" fill="#00936F"/>
<path d="M51.9759 5.4894C50.5255 4.9312 49.168 4.41751 47.8549 3.90466C47.5484 2.95892 46.7521 2.19541 45.4636 2.19541C45.0665 2.18999 44.6733 2.27454 44.3132 2.44277C43.6821 2.12945 43.0732 1.74687 42.6155 1.25874C41.4749 0.0450375 40.0032 -0.0332913 38.5948 0.0079351C37.824 0.0310219 37.6416 0.544702 38.354 0.841533C39.723 1.41128 40.6031 2.57304 40.7452 4.13965C40.9293 6.16799 39.2965 8.11965 37.1773 8.40411C35.118 8.68116 33.4442 7.36273 32.7892 4.89409C32.761 4.79312 32.7111 4.69956 32.643 4.61997C32.5749 4.54038 32.4903 4.47668 32.3951 4.43332C32.2999 4.38997 32.1965 4.36801 32.092 4.36898C31.9874 4.36996 31.8844 4.39384 31.79 4.43895C27.1735 6.64292 23.2785 7.86075 19.9061 11.5513C19.6366 11.8473 27.5343 10.0862 33.0538 12.6917C33.7572 13.0215 24.1496 17.0617 22.4272 19.5353C22.3649 19.6257 22.3239 19.7292 22.3075 19.8379C22.2911 19.9465 22.2996 20.0576 22.3324 20.1625C22.3652 20.2673 22.4215 20.3633 22.4968 20.4431C22.5722 20.5229 22.6648 20.5844 22.7674 20.6228C24.7667 21.3855 26.8588 20.5181 28.3083 19.6334C28.8951 19.2764 29.2944 19.5344 29.1966 20.2155C28.9624 21.8563 28.7529 24.3381 29.2681 26.0614C29.3832 26.4498 29.7875 27.0352 30.0742 27.0451C31.813 27.1044 33.5535 27.1003 35.4319 27.0945C35.5755 27.094 35.7156 27.0504 35.8342 26.9694C35.9528 26.8883 36.0445 26.7735 36.0976 26.6396C36.1506 26.5058 36.1625 26.3591 36.1317 26.2185C36.101 26.0778 36.029 25.9496 35.925 25.8503C34.1459 24.1188 33.7827 22.3576 34.3957 19.7628C35.1755 16.4647 38.3269 11.379 39.709 10.8241C42.1274 9.85363 46.7422 8.35052 48.7317 8.39422C49.6101 8.41483 49.9577 8.8576 49.9306 9.54856C49.9306 10.0894 50.2593 10.9033 50.9216 9.79591C51.5181 8.79906 51.8666 7.63236 52.3785 6.46152C52.4185 6.37152 52.4397 6.27428 52.4409 6.17576C52.4422 6.07724 52.4234 5.9795 52.3857 5.88852C52.348 5.79753 52.2922 5.71522 52.2217 5.64659C52.1513 5.57797 52.0676 5.52448 51.9759 5.4894Z" fill="#00936F"/>
<path d="M47.2447 26.4535C47.4493 26.6943 47.1387 27.0645 46.8248 27.0917C45.1271 27.236 44.9003 27.2203 43.5477 27.0043C40.4564 26.5096 40.3865 24.9735 39.4045 21.9235C39.3787 21.8435 39.3795 21.7572 39.4068 21.6776C39.434 21.5981 39.4863 21.5296 39.5557 21.4824L44.8009 17.9509C45.1115 17.7423 45.2881 18.0466 45.2117 18.4061C45.1575 18.6666 45.1221 18.8711 45.0597 19.1226C45.0382 19.1758 45.022 19.2311 45.0112 19.2875C44.9258 21.3736 45.4697 24.3575 47.2447 26.4535Z" fill="#00936F"/>
<path d="M41.6559 4.54486C40.1168 5.38753 39.1907 6.00263 38.0928 6.07601C36.0286 6.21536 34.3901 4.40304 34.4591 4.39645C34.3901 3.91492 36.2357 2.69957 38.1725 2.93785C39.3016 3.0772 40.1554 3.67251 41.6559 4.54486Z" fill="#00936F"/>
</svg>
