<svg width="91" height="64" viewBox="0 0 91 64" fill="none" xmlns="http://www.w3.org/2000/svg">
<path d="M28.6408 54.1233C25.6813 55.4819 11.9593 55.2471 8.02495 54.0806C7.97023 54.0634 7.92316 54.0277 7.89176 53.9795C7.86036 53.9314 7.84659 53.8738 7.85279 53.8166C9.40024 40.7874 18.8783 38.6388 28.8439 34.8502C28.8704 34.8254 28.8915 34.7953 28.9059 34.7619C28.9203 34.7285 28.9278 34.6925 28.9278 34.6561C28.9278 34.6197 28.9203 34.5837 28.9059 34.5504C28.8915 34.517 28.8704 34.4869 28.8439 34.462C27.4222 33.02 19.4219 27.1216 8.34991 33.1422C7.94315 33.3842 7.59131 33.7088 7.31699 34.0952C1.85838 42.5303 -1.15914 50.783 0.417319 61.5356C0.495689 62.0928 0.767273 62.6045 1.18435 62.9808C1.60143 63.357 2.13733 63.5738 2.69787 63.5929C8.23192 63.7695 23.4955 63.6686 31.668 63.9384C31.8298 63.9459 31.9909 63.9125 32.1365 63.8413C32.2821 63.77 32.4075 63.6633 32.5013 63.5307C32.5951 63.3982 32.6541 63.2442 32.6731 63.0827C32.6921 62.9213 32.6704 62.7577 32.61 62.6069C31.726 60.2973 29.7666 55.7595 28.96 54.2359C28.9316 54.1793 28.8825 54.136 28.823 54.115C28.7635 54.094 28.6982 54.0969 28.6408 54.1233V54.1233Z" fill="#00936F"/>
<path d="M89.0475 12.9217C85.6335 11.6077 82.438 10.3986 79.347 9.19133C78.6255 6.96513 76.7511 5.16786 73.7181 5.16786C72.7833 5.1551 71.8576 5.35413 71.0101 5.75013C69.5246 5.01259 68.0912 4.11202 67.0138 2.96301C64.329 0.106016 60.8647 -0.0783658 57.5493 0.0186788C55.7349 0.0730237 55.3055 1.2822 56.9825 1.98092C60.2051 3.32207 62.2767 6.05679 62.6114 9.74448C63.0446 14.5191 59.2012 19.1132 54.2126 19.7828C49.3652 20.4349 45.425 17.3314 43.8834 11.5204C43.8168 11.2827 43.6993 11.0625 43.5391 10.8751C43.3788 10.6878 43.1797 10.5378 42.9557 10.4358C42.7316 10.3337 42.4881 10.282 42.242 10.2843C41.996 10.2866 41.7534 10.3428 41.5313 10.449C30.6643 15.637 21.4957 18.5037 13.5573 27.1912C12.9229 27.8879 31.5135 23.7422 44.5062 29.8754C46.162 30.6518 23.5461 40.1621 19.4918 45.9848C19.3451 46.1976 19.2487 46.4413 19.21 46.6971C19.1714 46.953 19.1914 47.2143 19.2686 47.4612C19.3459 47.7081 19.4782 47.9341 19.6557 48.1219C19.8331 48.3096 20.051 48.4543 20.2926 48.5449C24.9987 50.3402 29.9235 48.2984 33.3356 46.2158C34.7167 45.3754 35.6568 45.9829 35.4266 47.586C34.8753 51.4484 34.3821 57.2905 35.5949 61.347C35.8657 62.2611 36.8174 63.6392 37.4924 63.6625C41.5854 63.8022 45.6823 63.7925 50.1041 63.7789C50.442 63.7777 50.7717 63.6751 51.051 63.4843C51.3302 63.2934 51.5461 63.0231 51.671 62.7081C51.7958 62.3931 51.8238 62.0478 51.7514 61.7167C51.679 61.3855 51.5095 61.0837 51.2647 60.8501C47.0769 56.7742 46.222 52.6285 47.665 46.5205C49.5006 38.7569 56.9187 26.7855 60.1722 25.4793C65.8649 23.1949 76.7279 19.6566 81.4109 19.7595C83.4787 19.808 84.2969 20.8503 84.233 22.4767C84.233 23.75 85.0068 25.6656 86.5658 23.059C87.9701 20.7125 88.7903 17.9661 89.9953 15.21C90.0894 14.9982 90.1394 14.7693 90.1423 14.5374C90.1452 14.3055 90.1009 14.0754 90.0122 13.8612C89.9235 13.647 89.7922 13.4533 89.6263 13.2917C89.4605 13.1302 89.2635 13.0043 89.0475 12.9217Z" fill="#00936F"/>
<path d="M77.9218 62.2759C78.4035 62.8427 77.6723 63.7141 76.9334 63.7782C72.9371 64.1178 72.4033 64.081 69.2194 63.5725C61.9425 62.4079 61.7781 58.792 59.4666 51.6127C59.4059 51.4243 59.4077 51.2212 59.4719 51.0339C59.5361 50.8466 59.6591 50.6853 59.8225 50.5743L72.1692 42.2615C72.9004 41.7704 73.3163 42.4866 73.1364 43.3328C73.0087 43.9462 72.9255 44.4275 72.7785 45.0195C72.7279 45.1448 72.6897 45.2748 72.6644 45.4076C72.4632 50.3181 73.7437 57.3422 77.9218 62.2759Z" fill="#00936F"/>
<path d="M64.7547 10.6977C61.1317 12.6813 58.9518 14.1292 56.3675 14.3019C51.5086 14.6299 47.6516 10.3638 47.814 10.3483C47.6516 9.21483 51.996 6.35395 56.5552 6.91487C59.2129 7.24288 61.2226 8.64421 64.7547 10.6977Z" fill="#00936F"/>
</svg>
