<svg width="269" height="64" viewBox="0 0 269 64" fill="none" xmlns="http://www.w3.org/2000/svg">
<path d="M98.1489 55.6854H127.046V48.3524H111.261L127.667 23.1842V22.1278H100.013V29.4608H114.617L98.1489 54.629V55.6854Z" fill="#25083B"/>
<path d="M135.134 17.467H143.586V10.0098H135.134V17.467ZM135.134 55.6854H143.586V22.1278H135.134V55.6854Z" fill="#25083B"/>
<path d="M152.839 55.6854H160.296V53.759C161.477 54.6704 162.823 55.3747 164.335 55.8718C165.848 56.369 167.525 56.6176 169.369 56.6176C172.456 56.6176 175.159 55.8408 177.479 54.2872C179.799 52.7336 181.601 50.6207 182.885 47.9485C184.19 45.2763 184.843 42.2624 184.843 38.9066C184.843 35.4887 184.18 32.454 182.854 29.8025C181.549 27.1304 179.706 25.0278 177.323 23.495C174.941 21.9621 172.145 21.1956 168.934 21.1956C167.463 21.1956 166.086 21.3717 164.801 21.7239C163.538 22.076 162.388 22.5835 161.352 23.2464V10.9419H152.839V55.6854ZM168.002 49.0982C165.185 49.0982 163.196 48.166 162.036 46.3017C160.876 44.4167 160.296 41.9516 160.296 38.9066C160.296 35.8616 160.866 33.4069 162.005 31.5426C163.165 29.6575 165.06 28.715 167.691 28.715C169.576 28.715 171.119 29.1811 172.321 30.1133C173.543 31.0247 174.444 32.2572 175.024 33.8108C175.604 35.3437 175.894 37.0423 175.894 38.9066C175.894 40.7916 175.614 42.5109 175.055 44.0645C174.496 45.5974 173.636 46.8196 172.476 47.731C171.316 48.6424 169.825 49.0982 168.002 49.0982Z" fill="#25083B"/>
<path d="M191.618 55.6854H199.075V53.759C200.256 54.6704 201.602 55.3747 203.115 55.8718C204.627 56.369 206.305 56.6176 208.148 56.6176C211.235 56.6176 213.938 55.8408 216.258 54.2872C218.578 52.7336 220.38 50.6207 221.664 47.9485C222.969 45.2763 223.622 42.2624 223.622 38.9066C223.622 35.4887 222.959 32.454 221.633 29.8025C220.328 27.1304 218.485 25.0278 216.103 23.495C213.72 21.9621 210.924 21.1956 207.713 21.1956C206.242 21.1956 204.865 21.3717 203.581 21.7239C202.317 22.076 201.167 22.5835 200.132 23.2464V10.9419H191.618V55.6854ZM206.781 49.0982C203.964 49.0982 201.975 48.166 200.815 46.3017C199.655 44.4167 199.075 41.9516 199.075 38.9066C199.075 35.8616 199.645 33.4069 200.784 31.5426C201.944 29.6575 203.84 28.715 206.47 28.715C208.355 28.715 209.899 29.1811 211.1 30.1133C212.322 31.0247 213.223 32.2572 213.803 33.8108C214.383 35.3437 214.673 37.0423 214.673 38.9066C214.673 40.7916 214.394 42.5109 213.834 44.0645C213.275 45.5974 212.415 46.8196 211.255 47.731C210.095 48.6424 208.604 49.0982 206.781 49.0982Z" fill="#25083B"/>
<path d="M231.081 17.467H239.532V10.0098H231.081V17.467ZM231.081 55.6854H239.532V22.1278H231.081V55.6854Z" fill="#25083B"/>
<path d="M268.982 55.6854V48.6632C266.993 48.9325 265.181 49.0153 263.544 48.9117C261.908 48.8082 260.717 48.166 259.971 46.9853C259.578 46.3638 259.36 45.5353 259.319 44.4995C259.298 43.4431 259.288 42.2624 259.288 40.9573V28.6529H268.982V22.1278H259.288V12.8062H250.836V22.1278H245.119V28.6529H250.836V41.4545C250.836 43.4638 250.857 45.266 250.898 46.861C250.94 48.4353 251.375 49.9889 252.203 51.5218C253.115 53.1582 254.44 54.3493 256.18 55.095C257.941 55.82 259.93 56.2033 262.146 56.2447C264.383 56.3068 266.662 56.1204 268.982 55.6854Z" fill="#25083B"/>
<path d="M28.6409 54.1234C25.6814 55.482 11.9594 55.2472 8.02499 54.0807C7.97027 54.0635 7.9232 54.0278 7.8918 53.9797C7.8604 53.9315 7.84663 53.8739 7.85283 53.8167C9.40029 40.7875 18.8784 38.6389 28.844 34.8502C28.8705 34.8254 28.8916 34.7953 28.906 34.7619C28.9205 34.7285 28.9279 34.6925 28.9279 34.6562C28.9279 34.6198 28.9205 34.5838 28.906 34.5504C28.8916 34.517 28.8705 34.4869 28.844 34.4621C27.4223 33.02 19.422 27.1216 8.34996 33.1423C7.94319 33.3842 7.59135 33.7088 7.31703 34.0952C1.85839 42.5304 -1.15915 50.7831 0.417321 61.5357C0.495692 62.093 0.767277 62.6047 1.18436 62.9809C1.60144 63.3572 2.13734 63.5739 2.69788 63.5931C8.23196 63.7697 23.4957 63.6688 31.6681 63.9385C31.83 63.9461 31.991 63.9127 32.1366 63.8414C32.2822 63.7702 32.4077 63.6634 32.5015 63.5309C32.5952 63.3984 32.6543 63.2443 32.6733 63.0829C32.6923 62.9215 32.6706 62.7579 32.6102 62.6071C31.7262 60.2974 29.7667 55.7596 28.9601 54.236C28.9318 54.1794 28.8827 54.1361 28.8231 54.1151C28.7636 54.0941 28.6983 54.0971 28.6409 54.1234V54.1234Z" fill="#00936F"/>
<path d="M89.0474 12.9218C85.6333 11.6078 82.4378 10.3986 79.3468 9.19137C78.6253 6.96516 76.751 5.16789 73.7179 5.16789C72.7831 5.15513 71.8574 5.35416 71.0099 5.75016C69.5243 5.01262 68.091 4.11204 67.0136 2.96302C64.3288 0.106016 60.8644 -0.0783662 57.549 0.0186789C55.7346 0.0730241 55.3052 1.2822 56.9822 1.98093C60.2048 3.32209 62.2765 6.05682 62.6111 9.74453C63.0444 14.5191 59.2009 19.1133 54.2123 19.7829C49.3649 20.435 45.4247 17.3315 43.8831 11.5205C43.8165 11.2828 43.699 11.0625 43.5387 10.8752C43.3785 10.6878 43.1794 10.5379 42.9553 10.4358C42.7313 10.3338 42.4877 10.2821 42.2417 10.2844C41.9956 10.2867 41.753 10.3429 41.5309 10.4491C30.6639 15.6371 21.4953 18.5038 13.5568 27.1913C12.9224 27.8881 31.5131 23.7423 44.5059 29.8756C46.1617 30.6519 23.5456 40.1623 19.4913 45.985C19.3446 46.1979 19.2482 46.4415 19.2096 46.6973C19.1709 46.9532 19.1909 47.2145 19.2682 47.4615C19.3454 47.7084 19.4778 47.9343 19.6552 48.1221C19.8327 48.3099 20.0505 48.4546 20.2921 48.5451C24.9983 50.3404 29.9231 48.2986 33.3352 46.216C34.7163 45.3756 35.6564 45.9831 35.4262 47.5863C34.8749 51.4487 34.3817 57.2908 35.5945 61.3473C35.8653 62.2614 36.817 63.6395 37.4921 63.6628C41.5851 63.8025 45.682 63.7928 50.1038 63.7792C50.4417 63.7781 50.7714 63.6754 51.0507 63.4846C51.3299 63.2938 51.5458 63.0234 51.6707 62.7084C51.7955 62.3934 51.8235 62.0481 51.7511 61.717C51.6787 61.3859 51.5092 61.084 51.2644 60.8504C47.0766 56.7745 46.2216 52.6287 47.6646 46.5207C49.5003 38.7571 56.9184 26.7856 60.1719 25.4794C65.8646 23.195 76.7277 19.6567 81.4107 19.7596C83.4785 19.8081 84.2967 20.8504 84.2329 22.4768C84.2329 23.7501 85.0066 25.6657 86.5657 23.0591C87.97 20.7126 88.7901 17.9662 89.9952 15.2101C90.0893 14.9982 90.1393 14.7694 90.1422 14.5374C90.1451 14.3055 90.1008 14.0755 90.0121 13.8613C89.9234 13.6471 89.7921 13.4533 89.6262 13.2918C89.4603 13.1303 89.2634 13.0044 89.0474 12.9218Z" fill="#00936F"/>
<path d="M77.9219 62.2765C78.4036 62.8433 77.6724 63.7147 76.9335 63.7788C72.9372 64.1184 72.4033 64.0816 69.2194 63.573C61.9425 62.4085 61.7781 58.7926 59.4666 51.6132C59.4059 51.4248 59.4077 51.2217 59.4719 51.0344C59.5361 50.8472 59.6591 50.6859 59.8225 50.5748L72.1693 42.2619C72.9004 41.7709 73.3163 42.4871 73.1364 43.3333C73.0088 43.9467 72.9256 44.428 72.7786 45.02C72.728 45.1453 72.6898 45.2753 72.6645 45.4082C72.4633 50.3186 73.7438 57.3428 77.9219 62.2765Z" fill="#00936F"/>
<path d="M64.7548 10.6982C61.1318 12.6818 58.9518 14.1297 56.3676 14.3024C51.5086 14.6304 47.6516 10.3643 47.814 10.3488C47.6516 9.21533 51.996 6.35444 56.5552 6.91536C59.213 7.24337 61.2227 8.64471 64.7548 10.6982Z" fill="#00936F"/>
</svg>
